<mxfile host="app.diagrams.net" modified="2022-06-05T06:11:41.426Z" agent="5.0 (Windows NT 10.0; Win64; x64) AppleWebKit/537.36 (KHTML, like Gecko) Chrome/102.0.5005.63 Safari/537.36 Edg/102.0.1245.33" etag="8-G0ja-kZu2Zdsxhi-Qy" version="19.0.0" type="github">
  <diagram id="C5RBs43oDa-KdzZeNtuy" name="Page-1">
    <mxGraphModel dx="2188" dy="1237" grid="1" gridSize="10" guides="1" tooltips="1" connect="1" arrows="1" fold="1" page="1" pageScale="1" pageWidth="827" pageHeight="1169" math="0" shadow="0">
      <root>
        <mxCell id="WIyWlLk6GJQsqaUBKTNV-0" />
        <mxCell id="WIyWlLk6GJQsqaUBKTNV-1" parent="WIyWlLk6GJQsqaUBKTNV-0" />
        <mxCell id="dBu28PnEhIOGCq4TgcNn-23" value="MainGameManager(Single)" style="swimlane;fontStyle=1;align=center;verticalAlign=top;childLayout=stackLayout;horizontal=1;startSize=26;horizontalStack=0;resizeParent=1;resizeParentMax=0;resizeLast=0;collapsible=1;marginBottom=0;" vertex="1" parent="WIyWlLk6GJQsqaUBKTNV-1">
          <mxGeometry x="210" y="110" width="340" height="204" as="geometry" />
        </mxCell>
        <mxCell id="dBu28PnEhIOGCq4TgcNn-24" value="+ s_GameState: enum&#xa;&#xa;+ s_StartGameAction: UnityAction" style="text;strokeColor=none;fillColor=none;align=left;verticalAlign=top;spacingLeft=4;spacingRight=4;overflow=hidden;rotatable=0;points=[[0,0.5],[1,0.5]];portConstraint=eastwest;" vertex="1" parent="dBu28PnEhIOGCq4TgcNn-23">
          <mxGeometry y="26" width="340" height="50" as="geometry" />
        </mxCell>
        <mxCell id="dBu28PnEhIOGCq4TgcNn-25" value="" style="line;strokeWidth=1;fillColor=none;align=left;verticalAlign=middle;spacingTop=-1;spacingLeft=3;spacingRight=3;rotatable=0;labelPosition=right;points=[];portConstraint=eastwest;" vertex="1" parent="dBu28PnEhIOGCq4TgcNn-23">
          <mxGeometry y="76" width="340" height="8" as="geometry" />
        </mxCell>
        <mxCell id="dBu28PnEhIOGCq4TgcNn-26" value="+ StartGame(): void&#xa;&#xa;+ Pause/ResumeGame(bool value): void&#xa;&#xa;+ QuitGame(): void&#xa;&#xa;+ VolumeToggleGame(): void&#xa;&#xa;" style="text;strokeColor=none;fillColor=none;align=left;verticalAlign=top;spacingLeft=4;spacingRight=4;overflow=hidden;rotatable=0;points=[[0,0.5],[1,0.5]];portConstraint=eastwest;" vertex="1" parent="dBu28PnEhIOGCq4TgcNn-23">
          <mxGeometry y="84" width="340" height="120" as="geometry" />
        </mxCell>
        <mxCell id="dBu28PnEhIOGCq4TgcNn-31" value="UIManager(Single)" style="swimlane;fontStyle=1;align=center;verticalAlign=top;childLayout=stackLayout;horizontal=1;startSize=26;horizontalStack=0;resizeParent=1;resizeParentMax=0;resizeLast=0;collapsible=1;marginBottom=0;" vertex="1" parent="WIyWlLk6GJQsqaUBKTNV-1">
          <mxGeometry x="570" y="110" width="240" height="180" as="geometry" />
        </mxCell>
        <mxCell id="dBu28PnEhIOGCq4TgcNn-32" value="+ field: type" style="text;strokeColor=none;fillColor=none;align=left;verticalAlign=top;spacingLeft=4;spacingRight=4;overflow=hidden;rotatable=0;points=[[0,0.5],[1,0.5]];portConstraint=eastwest;" vertex="1" parent="dBu28PnEhIOGCq4TgcNn-31">
          <mxGeometry y="26" width="240" height="26" as="geometry" />
        </mxCell>
        <mxCell id="dBu28PnEhIOGCq4TgcNn-33" value="" style="line;strokeWidth=1;fillColor=none;align=left;verticalAlign=middle;spacingTop=-1;spacingLeft=3;spacingRight=3;rotatable=0;labelPosition=right;points=[];portConstraint=eastwest;" vertex="1" parent="dBu28PnEhIOGCq4TgcNn-31">
          <mxGeometry y="52" width="240" height="8" as="geometry" />
        </mxCell>
        <mxCell id="dBu28PnEhIOGCq4TgcNn-34" value="+ StartButton(): void&#xa;&#xa;+ Pause/ResumeButton(bool value): void&#xa;&#xa;+ QuitButton(): void&#xa;&#xa;+ VolumeToggleButton(bool): void&#xa;&#xa;" style="text;strokeColor=none;fillColor=none;align=left;verticalAlign=top;spacingLeft=4;spacingRight=4;overflow=hidden;rotatable=0;points=[[0,0.5],[1,0.5]];portConstraint=eastwest;" vertex="1" parent="dBu28PnEhIOGCq4TgcNn-31">
          <mxGeometry y="60" width="240" height="120" as="geometry" />
        </mxCell>
        <mxCell id="dBu28PnEhIOGCq4TgcNn-35" value="LevelManager(Single)" style="swimlane;fontStyle=1;align=center;verticalAlign=top;childLayout=stackLayout;horizontal=1;startSize=26;horizontalStack=0;resizeParent=1;resizeParentMax=0;resizeLast=0;collapsible=1;marginBottom=0;" vertex="1" parent="WIyWlLk6GJQsqaUBKTNV-1">
          <mxGeometry x="827" y="110" width="210" height="90" as="geometry" />
        </mxCell>
        <mxCell id="dBu28PnEhIOGCq4TgcNn-36" value="+ m_Levels: List&lt;Levels&gt; " style="text;strokeColor=none;fillColor=none;align=left;verticalAlign=top;spacingLeft=4;spacingRight=4;overflow=hidden;rotatable=0;points=[[0,0.5],[1,0.5]];portConstraint=eastwest;" vertex="1" parent="dBu28PnEhIOGCq4TgcNn-35">
          <mxGeometry y="26" width="210" height="26" as="geometry" />
        </mxCell>
        <mxCell id="dBu28PnEhIOGCq4TgcNn-37" value="" style="line;strokeWidth=1;fillColor=none;align=left;verticalAlign=middle;spacingTop=-1;spacingLeft=3;spacingRight=3;rotatable=0;labelPosition=right;points=[];portConstraint=eastwest;" vertex="1" parent="dBu28PnEhIOGCq4TgcNn-35">
          <mxGeometry y="52" width="210" height="8" as="geometry" />
        </mxCell>
        <mxCell id="dBu28PnEhIOGCq4TgcNn-38" value="+ LoadLevel (int level_Index): void&#xa;&#xa;" style="text;strokeColor=none;fillColor=none;align=left;verticalAlign=top;spacingLeft=4;spacingRight=4;overflow=hidden;rotatable=0;points=[[0,0.5],[1,0.5]];portConstraint=eastwest;" vertex="1" parent="dBu28PnEhIOGCq4TgcNn-35">
          <mxGeometry y="60" width="210" height="30" as="geometry" />
        </mxCell>
        <mxCell id="dBu28PnEhIOGCq4TgcNn-39" value="PlayerManager" style="swimlane;fontStyle=1;align=center;verticalAlign=top;childLayout=stackLayout;horizontal=1;startSize=26;horizontalStack=0;resizeParent=1;resizeParentMax=0;resizeLast=0;collapsible=1;marginBottom=0;fontSize=13;" vertex="1" parent="WIyWlLk6GJQsqaUBKTNV-1">
          <mxGeometry x="210" y="330" width="250" height="394" as="geometry" />
        </mxCell>
        <mxCell id="dBu28PnEhIOGCq4TgcNn-40" value="- m_ShootRate: float&#xa;&#xa;- m_Bullet: GameObject&#xa;&#xa;- m_Gun: GameObject&#xa;&#xa;&#xa;&#xa;&#xa;&#xa;&#xa;&#xa;&#xa;&#xa;&#xa;&#xa;" style="text;strokeColor=none;fillColor=none;align=left;verticalAlign=top;spacingLeft=4;spacingRight=4;overflow=hidden;rotatable=0;points=[[0,0.5],[1,0.5]];portConstraint=eastwest;fontSize=13;" vertex="1" parent="dBu28PnEhIOGCq4TgcNn-39">
          <mxGeometry y="26" width="250" height="260" as="geometry" />
        </mxCell>
        <mxCell id="dBu28PnEhIOGCq4TgcNn-41" value="" style="line;strokeWidth=1;fillColor=none;align=left;verticalAlign=middle;spacingTop=-1;spacingLeft=3;spacingRight=3;rotatable=0;labelPosition=right;points=[];portConstraint=eastwest;fontSize=13;" vertex="1" parent="dBu28PnEhIOGCq4TgcNn-39">
          <mxGeometry y="286" width="250" height="8" as="geometry" />
        </mxCell>
        <mxCell id="dBu28PnEhIOGCq4TgcNn-42" value="-  Start(): void&#xa;&#xa;-  Co_Shoot(float interval): IEnumerator&#xa;&#xa;&#xa;&#xa;&#xa;&#xa;" style="text;strokeColor=none;fillColor=none;align=left;verticalAlign=top;spacingLeft=4;spacingRight=4;overflow=hidden;rotatable=0;points=[[0,0.5],[1,0.5]];portConstraint=eastwest;fontSize=13;" vertex="1" parent="dBu28PnEhIOGCq4TgcNn-39">
          <mxGeometry y="294" width="250" height="100" as="geometry" />
        </mxCell>
        <mxCell id="dBu28PnEhIOGCq4TgcNn-45" value="EnemySpawner" style="swimlane;fontStyle=1;align=center;verticalAlign=top;childLayout=stackLayout;horizontal=1;startSize=26;horizontalStack=0;resizeParent=1;resizeParentMax=0;resizeLast=0;collapsible=1;marginBottom=0;fontSize=13;" vertex="1" parent="WIyWlLk6GJQsqaUBKTNV-1">
          <mxGeometry x="190" y="780" width="300" height="424" as="geometry" />
        </mxCell>
        <mxCell id="dBu28PnEhIOGCq4TgcNn-46" value="- m_SpawnInterval: float&#xa;&#xa;- m_EnemySpawnRadius: float&#xa;&#xa;- m_VIP: GameObject&#xa;&#xa;- m_Enemy:  List&lt;GameObject&gt;&#xa;&#xa;&#xa;&#xa;&#xa;&#xa;&#xa;&#xa;&#xa;&#xa;&#xa;&#xa;" style="text;strokeColor=none;fillColor=none;align=left;verticalAlign=top;spacingLeft=4;spacingRight=4;overflow=hidden;rotatable=0;points=[[0,0.5],[1,0.5]];portConstraint=eastwest;fontSize=13;" vertex="1" parent="dBu28PnEhIOGCq4TgcNn-45">
          <mxGeometry y="26" width="300" height="260" as="geometry" />
        </mxCell>
        <mxCell id="dBu28PnEhIOGCq4TgcNn-47" value="" style="line;strokeWidth=1;fillColor=none;align=left;verticalAlign=middle;spacingTop=-1;spacingLeft=3;spacingRight=3;rotatable=0;labelPosition=right;points=[];portConstraint=eastwest;fontSize=13;" vertex="1" parent="dBu28PnEhIOGCq4TgcNn-45">
          <mxGeometry y="286" width="300" height="8" as="geometry" />
        </mxCell>
        <mxCell id="dBu28PnEhIOGCq4TgcNn-48" value="-  Start(): void&#xa;&#xa;-  Co_SpawnEnemy(float interval): IEnumerator&#xa;&#xa;&#xa;&#xa;&#xa;&#xa;" style="text;strokeColor=none;fillColor=none;align=left;verticalAlign=top;spacingLeft=4;spacingRight=4;overflow=hidden;rotatable=0;points=[[0,0.5],[1,0.5]];portConstraint=eastwest;fontSize=13;" vertex="1" parent="dBu28PnEhIOGCq4TgcNn-45">
          <mxGeometry y="294" width="300" height="130" as="geometry" />
        </mxCell>
        <mxCell id="dBu28PnEhIOGCq4TgcNn-49" value="EnemyHandlerBase" style="swimlane;fontStyle=1;align=center;verticalAlign=top;childLayout=stackLayout;horizontal=1;startSize=26;horizontalStack=0;resizeParent=1;resizeParentMax=0;resizeLast=0;collapsible=1;marginBottom=0;fontSize=13;" vertex="1" parent="WIyWlLk6GJQsqaUBKTNV-1">
          <mxGeometry x="510" y="780" width="280" height="464" as="geometry" />
        </mxCell>
        <mxCell id="dBu28PnEhIOGCq4TgcNn-50" value="+ m_MinDistFromVIP: float&#xa;&#xa;+ m_VIP: GameObject {get; set}&#xa;&#xa;#  m_MoveSpeed: float&#xa;&#xa;# m_Health: float&#xa;&#xa;&#xa;&#xa;&#xa;&#xa;&#xa;&#xa;&#xa;&#xa;" style="text;strokeColor=none;fillColor=none;align=left;verticalAlign=top;spacingLeft=4;spacingRight=4;overflow=hidden;rotatable=0;points=[[0,0.5],[1,0.5]];portConstraint=eastwest;fontSize=13;" vertex="1" parent="dBu28PnEhIOGCq4TgcNn-49">
          <mxGeometry y="26" width="280" height="260" as="geometry" />
        </mxCell>
        <mxCell id="dBu28PnEhIOGCq4TgcNn-51" value="" style="line;strokeWidth=1;fillColor=none;align=left;verticalAlign=middle;spacingTop=-1;spacingLeft=3;spacingRight=3;rotatable=0;labelPosition=right;points=[];portConstraint=eastwest;fontSize=13;" vertex="1" parent="dBu28PnEhIOGCq4TgcNn-49">
          <mxGeometry y="286" width="280" height="8" as="geometry" />
        </mxCell>
        <mxCell id="dBu28PnEhIOGCq4TgcNn-52" value="-  Start(): void&#xa;&#xa;- Update(): void&#xa;&#xa;-  OnCollisionEnter (Collision collision) : void&#xa;&#xa;&#xa;&#xa;&#xa;&#xa;" style="text;strokeColor=none;fillColor=none;align=left;verticalAlign=top;spacingLeft=4;spacingRight=4;overflow=hidden;rotatable=0;points=[[0,0.5],[1,0.5]];portConstraint=eastwest;fontSize=13;" vertex="1" parent="dBu28PnEhIOGCq4TgcNn-49">
          <mxGeometry y="294" width="280" height="170" as="geometry" />
        </mxCell>
        <mxCell id="dBu28PnEhIOGCq4TgcNn-53" value="BulletHandler" style="swimlane;fontStyle=1;align=center;verticalAlign=top;childLayout=stackLayout;horizontal=1;startSize=26;horizontalStack=0;resizeParent=1;resizeParentMax=0;resizeLast=0;collapsible=1;marginBottom=0;fontSize=13;" vertex="1" parent="WIyWlLk6GJQsqaUBKTNV-1">
          <mxGeometry x="852" y="790" width="270" height="80" as="geometry" />
        </mxCell>
        <mxCell id="dBu28PnEhIOGCq4TgcNn-54" value="+ field: type" style="text;strokeColor=none;fillColor=none;align=left;verticalAlign=top;spacingLeft=4;spacingRight=4;overflow=hidden;rotatable=0;points=[[0,0.5],[1,0.5]];portConstraint=eastwest;fontSize=13;" vertex="1" parent="dBu28PnEhIOGCq4TgcNn-53">
          <mxGeometry y="26" width="270" height="26" as="geometry" />
        </mxCell>
        <mxCell id="dBu28PnEhIOGCq4TgcNn-55" value="" style="line;strokeWidth=1;fillColor=none;align=left;verticalAlign=middle;spacingTop=-1;spacingLeft=3;spacingRight=3;rotatable=0;labelPosition=right;points=[];portConstraint=eastwest;fontSize=13;" vertex="1" parent="dBu28PnEhIOGCq4TgcNn-53">
          <mxGeometry y="52" width="270" height="8" as="geometry" />
        </mxCell>
        <mxCell id="dBu28PnEhIOGCq4TgcNn-56" value="+ OnCollisionEnter(Collision collision): void" style="text;strokeColor=none;fillColor=none;align=left;verticalAlign=top;spacingLeft=4;spacingRight=4;overflow=hidden;rotatable=0;points=[[0,0.5],[1,0.5]];portConstraint=eastwest;fontSize=13;" vertex="1" parent="dBu28PnEhIOGCq4TgcNn-53">
          <mxGeometry y="60" width="270" height="20" as="geometry" />
        </mxCell>
        <mxCell id="dBu28PnEhIOGCq4TgcNn-57" value="ExplosiveHandler" style="swimlane;fontStyle=1;align=center;verticalAlign=top;childLayout=stackLayout;horizontal=1;startSize=26;horizontalStack=0;resizeParent=1;resizeParentMax=0;resizeLast=0;collapsible=1;marginBottom=0;fontSize=13;" vertex="1" parent="WIyWlLk6GJQsqaUBKTNV-1">
          <mxGeometry x="1150" y="790" width="270" height="334" as="geometry" />
        </mxCell>
        <mxCell id="dBu28PnEhIOGCq4TgcNn-58" value="- m_AOERane: float&#xa;&#xa;- m_ExplosionForce: float&#xa;&#xa;- m_ExplosionLayer: LayerMask&#xa;&#xa;&#xa;&#xa;&#xa;&#xa;&#xa;&#xa;&#xa;&#xa;&#xa;&#xa;&#xa;&#xa;" style="text;strokeColor=none;fillColor=none;align=left;verticalAlign=top;spacingLeft=4;spacingRight=4;overflow=hidden;rotatable=0;points=[[0,0.5],[1,0.5]];portConstraint=eastwest;fontSize=13;" vertex="1" parent="dBu28PnEhIOGCq4TgcNn-57">
          <mxGeometry y="26" width="270" height="200" as="geometry" />
        </mxCell>
        <mxCell id="dBu28PnEhIOGCq4TgcNn-59" value="" style="line;strokeWidth=1;fillColor=none;align=left;verticalAlign=middle;spacingTop=-1;spacingLeft=3;spacingRight=3;rotatable=0;labelPosition=right;points=[];portConstraint=eastwest;fontSize=13;" vertex="1" parent="dBu28PnEhIOGCq4TgcNn-57">
          <mxGeometry y="226" width="270" height="8" as="geometry" />
        </mxCell>
        <mxCell id="dBu28PnEhIOGCq4TgcNn-60" value="- OnCollisionEnter(Collision collision): void&#xa;&#xa;- Explode(): void&#xa;&#xa;&#xa;&#xa;" style="text;strokeColor=none;fillColor=none;align=left;verticalAlign=top;spacingLeft=4;spacingRight=4;overflow=hidden;rotatable=0;points=[[0,0.5],[1,0.5]];portConstraint=eastwest;fontSize=13;" vertex="1" parent="dBu28PnEhIOGCq4TgcNn-57">
          <mxGeometry y="234" width="270" height="100" as="geometry" />
        </mxCell>
      </root>
    </mxGraphModel>
  </diagram>
</mxfile>
